<svg width="52" height="61" viewBox="0 0 52 61" fill="none" xmlns="http://www.w3.org/2000/svg">
<g clip-path="url(#clip0_110_578)" filter="url(#filter0_d_110_578)">
<path d="M44.75 22.083C44.75 37.5413 26 50.7913 26 50.7913C26 50.7913 7.25 37.5413 7.25 22.083C7.25 16.8118 9.22544 11.7565 12.7417 8.02926C16.2581 4.30197 21.0272 2.20801 26 2.20801C30.9728 2.20801 35.7419 4.30197 39.2583 8.02926C42.7746 11.7565 44.75 16.8118 44.75 22.083Z" fill="#203B4C" stroke="#203B4C" stroke-width="5" stroke-linecap="round" stroke-linejoin="round"/>
<path d="M26 28.708C29.4518 28.708 32.25 25.7419 32.25 22.083C32.25 18.4241 29.4518 15.458 26 15.458C22.5482 15.458 19.75 18.4241 19.75 22.083C19.75 25.7419 22.5482 28.708 26 28.708Z" fill="#FCCA42" stroke="#FCCA42" stroke-width="2" stroke-linecap="round" stroke-linejoin="round"/>
</g>
<defs>
<filter id="filter0_d_110_578" x="-3" y="0" width="58" height="61" filterUnits="userSpaceOnUse" color-interpolation-filters="sRGB">
<feFlood flood-opacity="0" result="BackgroundImageFix"/>
<feColorMatrix in="SourceAlpha" type="matrix" values="0 0 0 0 0 0 0 0 0 0 0 0 0 0 0 0 0 0 127 0" result="hardAlpha"/>
<feOffset dy="4"/>
<feGaussianBlur stdDeviation="2"/>
<feComposite in2="hardAlpha" operator="out"/>
<feColorMatrix type="matrix" values="0 0 0 0 0.266667 0 0 0 0 0.411765 0 0 0 0 0.494118 0 0 0 1 0"/>
<feBlend mode="normal" in2="BackgroundImageFix" result="effect1_dropShadow_110_578"/>
<feBlend mode="normal" in="SourceGraphic" in2="effect1_dropShadow_110_578" result="shape"/>
</filter>
<clipPath id="clip0_110_578">
<rect width="50" height="53" fill="white" transform="translate(1)"/>
</clipPath>
</defs>
</svg>
